<svg width="100" height="20" viewBox="0 0 100 20" fill="none" xmlns="http://www.w3.org/2000/svg">
<path d="M9.62567 20C4.2246 20 0 15.615 0 9.97326C0 4.35829 4.2246 0 9.62567 0C14.6791 0 18.6364 3.36898 19.3048 8.28877H15C14.5455 5.53476 12.4064 3.63636 9.67914 3.63636C6.39038 3.63636 4.17112 6.22995 4.17112 9.97326C4.17112 13.7433 6.39038 16.3636 9.67914 16.3636C12.4064 16.3636 14.5187 14.4385 15 11.6845H19.3048C18.6364 16.6578 14.6791 20 9.62567 20Z" fill="white"/>
<path d="M28.1319 5.05348C20.8859 5.05348 20.8859 8.31551 20.8859 12.4599C20.8859 16.631 23.9875 19.8663 28.1319 19.8663C32.2763 19.8663 35.3779 16.631 35.3779 12.4599C35.3779 8.31551 35.3779 5.05348 28.1319 5.05348ZM28.1319 8.34224C31.5544 8.34224 31.5544 9.81283 31.5544 12.4599C31.5544 15.107 29.9768 16.5508 28.1319 16.5508C26.287 16.5508 24.7094 15.107 24.7094 12.4599C24.7094 9.81283 24.7094 8.34224 28.1319 8.34224Z" fill="white"/>
<path d="M49.0953 19.5989L46.3948 10.3209L43.721 19.5989H40.0044L35.9402 5.32085H39.5498L41.983 14.3583L44.6033 5.32085H48.2664L50.8065 14.3583L53.2129 5.32085H56.876L52.7851 19.5989H49.0953Z" fill="white"/>
<path d="M64.6877 19.8663C60.5433 19.8663 57.4417 16.6043 57.4417 12.4599C57.4417 8.28877 57.4417 5.05348 64.6877 5.05348C71.9337 5.05348 71.9337 8.28877 71.9337 12.4599C71.9337 16.6043 68.8321 19.8663 64.6877 19.8663ZM64.6877 16.5775C66.5326 16.5775 68.1102 15.107 68.1102 12.4599C68.1102 9.81283 68.1102 8.36898 64.6877 8.36898C61.2652 8.36898 61.2652 9.81283 61.2652 12.4599C61.2652 15.107 62.8428 16.5775 64.6877 16.5775Z" fill="white"/>
<path d="M78.022 12.6738V19.5989H74.3054V5.32085H77.7279V8.07487C78.7707 6.25668 80.9899 5.16043 83.2894 5.16043V9.01069C80.1343 8.77005 78.022 9.51872 78.022 12.6738Z" fill="white"/>
<path d="M88.9365 19.5989H85.22V0.401069H88.9365V11.3636L94.1504 5.32085H98.4285L92.5194 12.1658L99.1237 19.5989H94.3911L88.9365 12.9679V19.5989Z" fill="white"/>
</svg>
