<svg width="76" height="48" viewBox="0 0 76 48" fill="none" xmlns="http://www.w3.org/2000/svg">
<circle cx="58" cy="30" r="18" fill="#D3F985"/>
<g clip-path="url(#clip0_2057_37)">
<path d="M41.8538 21.7031C41.9509 22.4648 41.9998 23.232 42 23.9999C42.0028 27.3633 41.0626 30.66 39.286 33.5158C37.5095 36.3716 34.9678 38.6721 31.9496 40.1561C28.9314 41.6401 25.5576 42.2482 22.2112 41.9113C18.8648 41.5743 15.6799 40.3059 13.0181 38.2499C17.7413 37.0949 23.2969 34.7006 28.4756 31.7249C33.9956 28.5543 38.655 25.0237 41.8538 21.7031ZM45.9581 11.3774C44.5238 8.90432 40.7381 8.34745 34.9894 9.7537C32.3279 7.69577 29.1427 6.42553 25.7954 6.08726C22.4482 5.74899 19.0732 6.35625 16.0538 7.84007C13.0344 9.32389 10.4917 11.6248 8.71447 14.4813C6.93728 17.3379 5.99685 20.6357 6.00002 23.9999C6.00026 24.7716 6.0491 25.5425 6.14627 26.3081C0.954397 31.6874 1.0294 34.8749 2.04377 36.6224C3.00002 38.2799 4.99502 38.9999 7.62002 38.9999C9.44256 38.9622 11.2544 38.7105 13.0181 38.2499C12.051 37.5023 11.1615 36.6593 10.3631 35.7337C7.12127 36.2737 5.11315 35.9212 4.63877 35.1168C4.36502 34.6462 4.5169 33.7593 5.05502 32.6793C5.58711 31.6678 6.23386 30.721 6.98252 29.8574C6.9834 29.8519 6.9834 29.8462 6.98252 29.8406V29.8556C7.72664 32.0086 8.87183 34.0012 10.3575 35.7281C14.2838 35.0737 20.0119 33.1199 26.9756 29.1187C32.25 26.0981 37.875 21.8756 41.0231 18.1537C40.2818 15.9977 39.1364 14.0027 37.6481 12.2756L37.6238 12.2474C37.6238 12.2568 37.6406 12.2643 37.6481 12.2756C40.3125 11.8349 42.78 11.8687 43.3669 12.8831C43.5394 13.1774 43.5544 13.6181 43.395 14.1956C43.0781 15.3787 42.2344 16.7324 41.0269 18.1574C41.4239 19.3092 41.7023 20.4985 41.8575 21.7068C44.2013 19.2693 45.7613 16.9537 46.2919 14.9718C46.6557 13.5956 46.545 12.3881 45.9581 11.3774Z" fill="#1D1E1C"/>
</g>
<defs>
<clipPath id="clip0_2057_37">
<rect width="48" height="48" fill="white"/>
</clipPath>
</defs>
</svg>
