<svg width="77" height="48" viewBox="0 0 77 48" fill="none" xmlns="http://www.w3.org/2000/svg">
<circle cx="58.3333" cy="30" r="18" fill="#FCBEDC"/>
<g clip-path="url(#clip0_2057_39)">
<path d="M27 15C27 14.6022 27.1581 14.2207 27.4394 13.9394C27.7207 13.6581 28.1022 13.5 28.5 13.5H46.5C46.8978 13.5 47.2794 13.6581 47.5607 13.9394C47.842 14.2207 48 14.6022 48 15C48 15.3979 47.842 15.7794 47.5607 16.0607C47.2794 16.342 46.8978 16.5 46.5 16.5H28.5C28.1022 16.5 27.7207 16.342 27.4394 16.0607C27.1581 15.7794 27 15.3979 27 15ZM46.5 22.5H28.5C28.1022 22.5 27.7207 22.6581 27.4394 22.9394C27.1581 23.2207 27 23.6022 27 24C27 24.3979 27.1581 24.7794 27.4394 25.0607C27.7207 25.342 28.1022 25.5 28.5 25.5H46.5C46.8978 25.5 47.2794 25.342 47.5607 25.0607C47.842 24.7794 48 24.3979 48 24C48 23.6022 47.842 23.2207 47.5607 22.9394C47.2794 22.6581 46.8978 22.5 46.5 22.5ZM46.5 31.5H33C32.6022 31.5 32.2207 31.6581 31.9394 31.9394C31.6581 32.2207 31.5 32.6022 31.5 33C31.5 33.3979 31.6581 33.7794 31.9394 34.0607C32.2207 34.342 32.6022 34.5 33 34.5H46.5C46.8978 34.5 47.2794 34.342 47.5607 34.0607C47.842 33.7794 48 33.3979 48 33C48 32.6022 47.842 32.2207 47.5607 31.9394C47.2794 31.6581 46.8978 31.5 46.5 31.5ZM20.4919 26.625C21.9806 25.4784 23.073 23.8946 23.6161 22.0956C24.1591 20.2967 24.1254 18.373 23.5198 16.5941C22.9141 14.8153 21.7669 13.2707 20.239 12.1769C18.7111 11.083 16.8791 10.4949 15 10.4949C13.1209 10.4949 11.289 11.083 9.76106 12.1769C8.23315 13.2707 7.08593 14.8153 6.4803 16.5941C5.87466 18.373 5.84098 20.2967 6.38399 22.0956C6.927 23.8946 8.01946 25.4784 9.50815 26.625C5.6419 28.2619 2.59502 31.5563 1.5469 35.625C1.48965 35.8468 1.48393 36.0786 1.53016 36.3029C1.5764 36.5272 1.67337 36.7379 1.81364 36.9189C1.95392 37.0999 2.13377 37.2464 2.33941 37.3471C2.54506 37.4478 2.77103 37.5002 3.00002 37.5H27C27.229 37.5002 27.455 37.4478 27.6606 37.3471C27.8663 37.2464 28.0461 37.0999 28.1864 36.9189C28.3267 36.7379 28.4236 36.5272 28.4699 36.3029C28.5161 36.0786 28.5104 35.8468 28.4531 35.625C27.405 31.5544 24.3582 28.26 20.4919 26.625Z" fill="#1D1E1C"/>
</g>
<defs>
<clipPath id="clip0_2057_39">
<rect width="48" height="48" fill="white"/>
</clipPath>
</defs>
</svg>
